<?xml version="1.0" encoding="UTF-8"?>
<svg version="1.1" xmlns="http://www.w3.org/2000/svg" width="32" height="32">
<path d="M0 0 C0.66 0 1.32 0 2 0 C2 1.65 2 3.3 2 5 C3.175625 5.1546875 3.175625 5.1546875 4.375 5.3125 C7 6 7 6 9 9 C9 9.99 9 10.98 9 12 C10.65 12 12.3 12 14 12 C14 12.66 14 13.32 14 14 C12.35 14 10.7 14 9 14 C8.67 15.65 8.34 17.3 8 19 C8.804375 19.37125 9.60875 19.7425 10.4375 20.125 C13 22 13 22 14 24.9375 C14 28 14 28 12.88305664 30.16259766 C10.23691488 32.74458428 8.52300157 32.48815271 4.87109375 32.4609375 C3.67162109 32.45707031 2.47214844 32.45320313 1.23632812 32.44921875 C-0.01728516 32.42472656 -1.27089844 32.40023437 -2.5625 32.375 C-4.4487207 32.37306641 -4.4487207 32.37306641 -6.37304688 32.37109375 C-15.71940352 32.28059648 -15.71940352 32.28059648 -18 30 C-18.375 26.5625 -18.375 26.5625 -18 23 C-16.125 21.4375 -16.125 21.4375 -14 20 C-13.690625 18.989375 -13.38125 17.97875 -13.0625 16.9375 C-12.711875 15.968125 -12.36125 14.99875 -12 14 C-10.34183216 13.31246699 -8.67540664 12.64438717 -7 12 C-6.33652369 9.51599015 -6.33652369 9.51599015 -6 7 C-3 5 -3 5 0 5 C0 3.35 0 1.7 0 0 Z " fill="#A3D3F5" transform="translate(18,0)"/>
<path d="M0 0 C0.66 0 1.32 0 2 0 C2 1.65 2 3.3 2 5 C2.78375 5.103125 3.5675 5.20625 4.375 5.3125 C7 6 7 6 9 9 C9 9.99 9 10.98 9 12 C10.65 12 12.3 12 14 12 C14 12.66 14 13.32 14 14 C12.35 14 10.7 14 9 14 C8.67 15.65 8.34 17.3 8 19 C6.53932801 18.54917531 5.08151968 18.08906463 3.625 17.625 C2.81289063 17.36976562 2.00078125 17.11453125 1.1640625 16.8515625 C-1 16 -1 16 -3 14 C-5.06874034 13.3574765 -5.06874034 13.3574765 -7 13 C-6.6875 10.125 -6.6875 10.125 -6 7 C-3 5 -3 5 0 5 C0 3.35 0 1.7 0 0 Z " fill="#FCCF21" transform="translate(18,0)"/>
<path d="M0 0 C0.66 0 1.32 0 2 0 C1.34 1.32 0.68 2.64 0 4 C-0.66 4 -1.32 4 -2 4 C-1.34 2.68 -0.68 1.36 0 0 Z " fill="#FDCC1D" transform="translate(28,2)"/>
<path d="M0 0 C1.98 0.99 1.98 0.99 4 2 C4 2.66 4 3.32 4 4 C2.68 3.34 1.36 2.68 0 2 C0 1.34 0 0.68 0 0 Z " fill="#FDD022" transform="translate(8,2)"/>
</svg>
